<mxfile host="Electron" modified="2023-07-23T09:54:02.342Z" agent="Mozilla/5.0 (X11; Linux x86_64) AppleWebKit/537.36 (KHTML, like Gecko) draw.io/21.6.5 Chrome/114.0.5735.243 Electron/25.3.1 Safari/537.36" etag="K_BXXtLZiOKbASDavCg8" version="21.6.5" type="device">
  <diagram name="Architecture" id="NLAh7Xzb34pMwgd8iKw2">
    <mxGraphModel dx="2845" dy="2372" grid="1" gridSize="10" guides="1" tooltips="1" connect="1" arrows="1" fold="1" page="1" pageScale="1" pageWidth="827" pageHeight="1169" math="0" shadow="0">
      <root>
        <mxCell id="0" />
        <mxCell id="1" parent="0" />
        <mxCell id="JIY74XaB05Dvq313Rqds-10" value="Summary" style="rounded=0;whiteSpace=wrap;html=1;connectable=0;allowArrows=0;align=center;verticalAlign=bottom;" parent="1" vertex="1">
          <mxGeometry x="-130" y="-10" width="140" height="270" as="geometry" />
        </mxCell>
        <mxCell id="JIY74XaB05Dvq313Rqds-1" value="Sudoku application" style="rounded=0;whiteSpace=wrap;html=1;connectable=0;allowArrows=0;align=left;verticalAlign=bottom;dashed=1;dashPattern=1 4;" parent="1" vertex="1">
          <mxGeometry x="70" y="-10" width="1420" height="860" as="geometry" />
        </mxCell>
        <mxCell id="4kyBC_adUinHuYCq5xL8-4" value="" style="edgeStyle=orthogonalEdgeStyle;rounded=0;orthogonalLoop=1;jettySize=auto;html=1;" parent="1" source="4kyBC_adUinHuYCq5xL8-1" target="4kyBC_adUinHuYCq5xL8-2" edge="1">
          <mxGeometry relative="1" as="geometry" />
        </mxCell>
        <mxCell id="4kyBC_adUinHuYCq5xL8-9" style="edgeStyle=orthogonalEdgeStyle;rounded=0;orthogonalLoop=1;jettySize=auto;html=1;exitX=1;exitY=0.5;exitDx=0;exitDy=0;entryX=0;entryY=0.5;entryDx=0;entryDy=0;" parent="1" source="4kyBC_adUinHuYCq5xL8-1" target="4kyBC_adUinHuYCq5xL8-7" edge="1">
          <mxGeometry relative="1" as="geometry" />
        </mxCell>
        <mxCell id="JIY74XaB05Dvq313Rqds-8" style="edgeStyle=orthogonalEdgeStyle;rounded=0;orthogonalLoop=1;jettySize=auto;html=1;exitX=0.5;exitY=0;exitDx=0;exitDy=0;entryX=0.5;entryY=1;entryDx=0;entryDy=0;endArrow=block;endFill=0;" parent="1" source="4kyBC_adUinHuYCq5xL8-1" target="JIY74XaB05Dvq313Rqds-7" edge="1">
          <mxGeometry relative="1" as="geometry" />
        </mxCell>
        <mxCell id="4kyBC_adUinHuYCq5xL8-1" value="MainActivity" style="rounded=0;whiteSpace=wrap;html=1;fillColor=#dae8fc;strokeColor=#6c8ebf;" parent="1" vertex="1">
          <mxGeometry x="80" y="240" width="120" height="40" as="geometry" />
        </mxCell>
        <mxCell id="4kyBC_adUinHuYCq5xL8-6" value="" style="edgeStyle=orthogonalEdgeStyle;rounded=0;orthogonalLoop=1;jettySize=auto;html=1;" parent="1" source="4kyBC_adUinHuYCq5xL8-2" target="4kyBC_adUinHuYCq5xL8-5" edge="1">
          <mxGeometry relative="1" as="geometry" />
        </mxCell>
        <mxCell id="YeZv4MfG5t6NwgMOMXwS-3" style="edgeStyle=orthogonalEdgeStyle;rounded=0;orthogonalLoop=1;jettySize=auto;html=1;exitX=0.5;exitY=1;exitDx=0;exitDy=0;entryX=0.5;entryY=0;entryDx=0;entryDy=0;endArrow=block;endFill=0;" edge="1" parent="1" source="4kyBC_adUinHuYCq5xL8-2" target="YeZv4MfG5t6NwgMOMXwS-2">
          <mxGeometry relative="1" as="geometry" />
        </mxCell>
        <mxCell id="4kyBC_adUinHuYCq5xL8-2" value="GridListFragment" style="rounded=0;whiteSpace=wrap;html=1;fillColor=#dae8fc;strokeColor=#6c8ebf;" parent="1" vertex="1">
          <mxGeometry x="240" y="240" width="120" height="40" as="geometry" />
        </mxCell>
        <mxCell id="4kyBC_adUinHuYCq5xL8-67" style="edgeStyle=orthogonalEdgeStyle;rounded=0;orthogonalLoop=1;jettySize=auto;html=1;exitX=1;exitY=0.5;exitDx=0;exitDy=0;entryX=0;entryY=0.5;entryDx=0;entryDy=0;" parent="1" source="4kyBC_adUinHuYCq5xL8-5" target="4kyBC_adUinHuYCq5xL8-66" edge="1">
          <mxGeometry relative="1" as="geometry" />
        </mxCell>
        <mxCell id="4kyBC_adUinHuYCq5xL8-69" style="edgeStyle=orthogonalEdgeStyle;rounded=0;orthogonalLoop=1;jettySize=auto;html=1;exitX=1;exitY=0.5;exitDx=0;exitDy=0;entryX=0;entryY=0.5;entryDx=0;entryDy=0;" parent="1" source="4kyBC_adUinHuYCq5xL8-5" target="4kyBC_adUinHuYCq5xL8-68" edge="1">
          <mxGeometry relative="1" as="geometry" />
        </mxCell>
        <mxCell id="4kyBC_adUinHuYCq5xL8-71" style="edgeStyle=orthogonalEdgeStyle;rounded=0;orthogonalLoop=1;jettySize=auto;html=1;exitX=1;exitY=0.5;exitDx=0;exitDy=0;entryX=0;entryY=0.5;entryDx=0;entryDy=0;" parent="1" source="4kyBC_adUinHuYCq5xL8-5" target="4kyBC_adUinHuYCq5xL8-70" edge="1">
          <mxGeometry relative="1" as="geometry" />
        </mxCell>
        <mxCell id="4kyBC_adUinHuYCq5xL8-73" style="edgeStyle=orthogonalEdgeStyle;rounded=0;orthogonalLoop=1;jettySize=auto;html=1;exitX=1;exitY=0.5;exitDx=0;exitDy=0;entryX=0;entryY=0.5;entryDx=0;entryDy=0;" parent="1" source="4kyBC_adUinHuYCq5xL8-5" target="4kyBC_adUinHuYCq5xL8-72" edge="1">
          <mxGeometry relative="1" as="geometry" />
        </mxCell>
        <mxCell id="4kyBC_adUinHuYCq5xL8-77" style="edgeStyle=orthogonalEdgeStyle;rounded=0;orthogonalLoop=1;jettySize=auto;html=1;exitX=1;exitY=0.5;exitDx=0;exitDy=0;entryX=0;entryY=0.5;entryDx=0;entryDy=0;" parent="1" source="4kyBC_adUinHuYCq5xL8-5" target="4kyBC_adUinHuYCq5xL8-76" edge="1">
          <mxGeometry relative="1" as="geometry" />
        </mxCell>
        <mxCell id="YeZv4MfG5t6NwgMOMXwS-6" style="edgeStyle=orthogonalEdgeStyle;rounded=0;orthogonalLoop=1;jettySize=auto;html=1;exitX=0.5;exitY=1;exitDx=0;exitDy=0;endArrow=block;endFill=0;" edge="1" parent="1" source="4kyBC_adUinHuYCq5xL8-5" target="YeZv4MfG5t6NwgMOMXwS-5">
          <mxGeometry relative="1" as="geometry" />
        </mxCell>
        <mxCell id="4kyBC_adUinHuYCq5xL8-5" value="GridListViewModel" style="rounded=0;whiteSpace=wrap;html=1;fillColor=#dae8fc;strokeColor=#6c8ebf;" parent="1" vertex="1">
          <mxGeometry x="400" y="240" width="120" height="40" as="geometry" />
        </mxCell>
        <mxCell id="4kyBC_adUinHuYCq5xL8-10" style="edgeStyle=orthogonalEdgeStyle;rounded=0;orthogonalLoop=1;jettySize=auto;html=1;exitX=1;exitY=0.5;exitDx=0;exitDy=0;entryX=0;entryY=0.5;entryDx=0;entryDy=0;" parent="1" source="4kyBC_adUinHuYCq5xL8-7" target="4kyBC_adUinHuYCq5xL8-8" edge="1">
          <mxGeometry relative="1" as="geometry" />
        </mxCell>
        <mxCell id="YeZv4MfG5t6NwgMOMXwS-4" style="edgeStyle=orthogonalEdgeStyle;rounded=0;orthogonalLoop=1;jettySize=auto;html=1;exitX=0.5;exitY=0;exitDx=0;exitDy=0;entryX=0.5;entryY=1;entryDx=0;entryDy=0;endArrow=block;endFill=0;" edge="1" parent="1" source="4kyBC_adUinHuYCq5xL8-7" target="YeZv4MfG5t6NwgMOMXwS-2">
          <mxGeometry relative="1" as="geometry" />
        </mxCell>
        <mxCell id="4kyBC_adUinHuYCq5xL8-7" value="GridFragment" style="rounded=0;whiteSpace=wrap;html=1;fillColor=#dae8fc;strokeColor=#6c8ebf;" parent="1" vertex="1">
          <mxGeometry x="240" y="400" width="120" height="40" as="geometry" />
        </mxCell>
        <mxCell id="4kyBC_adUinHuYCq5xL8-75" style="edgeStyle=orthogonalEdgeStyle;rounded=0;orthogonalLoop=1;jettySize=auto;html=1;exitX=1;exitY=0.5;exitDx=0;exitDy=0;entryX=0;entryY=0.5;entryDx=0;entryDy=0;" parent="1" source="4kyBC_adUinHuYCq5xL8-8" target="4kyBC_adUinHuYCq5xL8-74" edge="1">
          <mxGeometry relative="1" as="geometry" />
        </mxCell>
        <mxCell id="4kyBC_adUinHuYCq5xL8-79" style="edgeStyle=orthogonalEdgeStyle;rounded=0;orthogonalLoop=1;jettySize=auto;html=1;exitX=1;exitY=0.5;exitDx=0;exitDy=0;entryX=0;entryY=0.5;entryDx=0;entryDy=0;" parent="1" source="4kyBC_adUinHuYCq5xL8-8" target="4kyBC_adUinHuYCq5xL8-78" edge="1">
          <mxGeometry relative="1" as="geometry" />
        </mxCell>
        <mxCell id="4kyBC_adUinHuYCq5xL8-82" style="edgeStyle=orthogonalEdgeStyle;rounded=0;orthogonalLoop=1;jettySize=auto;html=1;exitX=1;exitY=0.5;exitDx=0;exitDy=0;entryX=0;entryY=0.5;entryDx=0;entryDy=0;" parent="1" source="4kyBC_adUinHuYCq5xL8-8" target="4kyBC_adUinHuYCq5xL8-80" edge="1">
          <mxGeometry relative="1" as="geometry" />
        </mxCell>
        <mxCell id="4kyBC_adUinHuYCq5xL8-83" style="edgeStyle=orthogonalEdgeStyle;rounded=0;orthogonalLoop=1;jettySize=auto;html=1;exitX=1;exitY=0.5;exitDx=0;exitDy=0;entryX=0;entryY=0.5;entryDx=0;entryDy=0;" parent="1" source="4kyBC_adUinHuYCq5xL8-8" target="4kyBC_adUinHuYCq5xL8-81" edge="1">
          <mxGeometry relative="1" as="geometry" />
        </mxCell>
        <mxCell id="4kyBC_adUinHuYCq5xL8-86" style="edgeStyle=orthogonalEdgeStyle;rounded=0;orthogonalLoop=1;jettySize=auto;html=1;exitX=1;exitY=0.5;exitDx=0;exitDy=0;entryX=0;entryY=0.5;entryDx=0;entryDy=0;" parent="1" source="4kyBC_adUinHuYCq5xL8-8" target="4kyBC_adUinHuYCq5xL8-85" edge="1">
          <mxGeometry relative="1" as="geometry">
            <mxPoint x="560.0000000000002" y="740" as="targetPoint" />
          </mxGeometry>
        </mxCell>
        <mxCell id="4kyBC_adUinHuYCq5xL8-88" style="edgeStyle=orthogonalEdgeStyle;rounded=0;orthogonalLoop=1;jettySize=auto;html=1;exitX=1;exitY=0.5;exitDx=0;exitDy=0;entryX=0;entryY=0.5;entryDx=0;entryDy=0;" parent="1" source="4kyBC_adUinHuYCq5xL8-8" target="4kyBC_adUinHuYCq5xL8-87" edge="1">
          <mxGeometry relative="1" as="geometry" />
        </mxCell>
        <mxCell id="YeZv4MfG5t6NwgMOMXwS-7" style="edgeStyle=orthogonalEdgeStyle;rounded=0;orthogonalLoop=1;jettySize=auto;html=1;exitX=0.5;exitY=0;exitDx=0;exitDy=0;endArrow=block;endFill=0;" edge="1" parent="1" source="4kyBC_adUinHuYCq5xL8-8" target="YeZv4MfG5t6NwgMOMXwS-5">
          <mxGeometry relative="1" as="geometry" />
        </mxCell>
        <mxCell id="4kyBC_adUinHuYCq5xL8-8" value="GridViewModel" style="rounded=0;whiteSpace=wrap;html=1;fillColor=#dae8fc;strokeColor=#6c8ebf;" parent="1" vertex="1">
          <mxGeometry x="400" y="400" width="120" height="40" as="geometry" />
        </mxCell>
        <mxCell id="4kyBC_adUinHuYCq5xL8-39" style="edgeStyle=orthogonalEdgeStyle;rounded=0;orthogonalLoop=1;jettySize=auto;html=1;exitX=1;exitY=0.5;exitDx=0;exitDy=0;entryX=0;entryY=0.5;entryDx=0;entryDy=0;" parent="1" source="4kyBC_adUinHuYCq5xL8-11" target="4kyBC_adUinHuYCq5xL8-25" edge="1">
          <mxGeometry relative="1" as="geometry" />
        </mxCell>
        <mxCell id="4kyBC_adUinHuYCq5xL8-11" value="GetGridsUseCase" style="rounded=0;whiteSpace=wrap;html=1;fillColor=#dae8fc;strokeColor=#6c8ebf;" parent="1" vertex="1">
          <mxGeometry x="1200" y="80" width="120" height="40" as="geometry" />
        </mxCell>
        <mxCell id="4kyBC_adUinHuYCq5xL8-20" style="edgeStyle=orthogonalEdgeStyle;rounded=0;orthogonalLoop=1;jettySize=auto;html=1;exitX=1;exitY=0.5;exitDx=0;exitDy=0;entryX=0;entryY=0.5;entryDx=0;entryDy=0;" parent="1" source="4kyBC_adUinHuYCq5xL8-12" target="4kyBC_adUinHuYCq5xL8-25" edge="1">
          <mxGeometry relative="1" as="geometry">
            <mxPoint x="1520" y="260" as="targetPoint" />
            <Array as="points">
              <mxPoint x="1340" y="180" />
              <mxPoint x="1340" y="340" />
            </Array>
          </mxGeometry>
        </mxCell>
        <mxCell id="4kyBC_adUinHuYCq5xL8-59" style="edgeStyle=orthogonalEdgeStyle;rounded=0;orthogonalLoop=1;jettySize=auto;html=1;exitX=1;exitY=0.75;exitDx=0;exitDy=0;entryX=0;entryY=0.25;entryDx=0;entryDy=0;" parent="1" source="4kyBC_adUinHuYCq5xL8-12" target="4kyBC_adUinHuYCq5xL8-21" edge="1">
          <mxGeometry relative="1" as="geometry" />
        </mxCell>
        <mxCell id="4kyBC_adUinHuYCq5xL8-12" value="DeleteGridsUseCase" style="rounded=0;whiteSpace=wrap;html=1;fillColor=#dae8fc;strokeColor=#6c8ebf;" parent="1" vertex="1">
          <mxGeometry x="1040" y="160" width="120" height="40" as="geometry" />
        </mxCell>
        <mxCell id="4kyBC_adUinHuYCq5xL8-26" style="edgeStyle=orthogonalEdgeStyle;rounded=0;orthogonalLoop=1;jettySize=auto;html=1;exitX=1;exitY=0.5;exitDx=0;exitDy=0;entryX=0;entryY=0.5;entryDx=0;entryDy=0;" parent="1" source="4kyBC_adUinHuYCq5xL8-21" target="4kyBC_adUinHuYCq5xL8-25" edge="1">
          <mxGeometry relative="1" as="geometry" />
        </mxCell>
        <mxCell id="4kyBC_adUinHuYCq5xL8-27" style="edgeStyle=orthogonalEdgeStyle;rounded=0;orthogonalLoop=1;jettySize=auto;html=1;exitX=1;exitY=0.5;exitDx=0;exitDy=0;entryX=0;entryY=0.5;entryDx=0;entryDy=0;" parent="1" source="4kyBC_adUinHuYCq5xL8-21" target="4kyBC_adUinHuYCq5xL8-25" edge="1">
          <mxGeometry relative="1" as="geometry">
            <mxPoint x="1520" y="270" as="targetPoint" />
          </mxGeometry>
        </mxCell>
        <mxCell id="4kyBC_adUinHuYCq5xL8-21" value="SetCurrentGrid&lt;br style=&quot;border-color: var(--border-color);&quot;&gt;UseCase" style="rounded=0;whiteSpace=wrap;html=1;fillColor=#dae8fc;strokeColor=#6c8ebf;" parent="1" vertex="1">
          <mxGeometry x="1200" y="240" width="120" height="40" as="geometry" />
        </mxCell>
        <mxCell id="4kyBC_adUinHuYCq5xL8-23" value="GenerateGrid&lt;br&gt;UseCase" style="rounded=0;whiteSpace=wrap;html=1;fillColor=#dae8fc;strokeColor=#6c8ebf;" parent="1" vertex="1">
          <mxGeometry x="1200" y="320" width="120" height="40" as="geometry" />
        </mxCell>
        <mxCell id="4kyBC_adUinHuYCq5xL8-25" value="GridRepository" style="rounded=0;whiteSpace=wrap;html=1;fillColor=#dae8fc;strokeColor=#6c8ebf;" parent="1" vertex="1">
          <mxGeometry x="1360" y="320" width="120" height="40" as="geometry" />
        </mxCell>
        <mxCell id="4kyBC_adUinHuYCq5xL8-43" style="edgeStyle=orthogonalEdgeStyle;rounded=0;orthogonalLoop=1;jettySize=auto;html=1;exitX=1;exitY=0.5;exitDx=0;exitDy=0;entryX=0;entryY=0.5;entryDx=0;entryDy=0;" parent="1" source="4kyBC_adUinHuYCq5xL8-41" target="4kyBC_adUinHuYCq5xL8-25" edge="1">
          <mxGeometry relative="1" as="geometry" />
        </mxCell>
        <mxCell id="4kyBC_adUinHuYCq5xL8-41" value="GetCurrentGrid&lt;br&gt;UseCase" style="rounded=0;whiteSpace=wrap;html=1;fillColor=#dae8fc;strokeColor=#6c8ebf;" parent="1" vertex="1">
          <mxGeometry x="1200" y="480" width="120" height="40" as="geometry" />
        </mxCell>
        <mxCell id="4kyBC_adUinHuYCq5xL8-46" style="edgeStyle=orthogonalEdgeStyle;rounded=0;orthogonalLoop=1;jettySize=auto;html=1;exitX=1;exitY=0.5;exitDx=0;exitDy=0;entryX=0;entryY=0.5;entryDx=0;entryDy=0;" parent="1" source="4kyBC_adUinHuYCq5xL8-45" target="4kyBC_adUinHuYCq5xL8-23" edge="1">
          <mxGeometry relative="1" as="geometry" />
        </mxCell>
        <mxCell id="4kyBC_adUinHuYCq5xL8-47" style="edgeStyle=orthogonalEdgeStyle;rounded=0;orthogonalLoop=1;jettySize=auto;html=1;exitX=1;exitY=0.5;exitDx=0;exitDy=0;entryX=0;entryY=0.5;entryDx=0;entryDy=0;" parent="1" source="4kyBC_adUinHuYCq5xL8-45" target="4kyBC_adUinHuYCq5xL8-21" edge="1">
          <mxGeometry relative="1" as="geometry" />
        </mxCell>
        <mxCell id="4kyBC_adUinHuYCq5xL8-64" style="edgeStyle=orthogonalEdgeStyle;rounded=0;orthogonalLoop=1;jettySize=auto;html=1;exitX=1;exitY=0.5;exitDx=0;exitDy=0;entryX=0;entryY=0.5;entryDx=0;entryDy=0;" parent="1" source="4kyBC_adUinHuYCq5xL8-45" target="4kyBC_adUinHuYCq5xL8-63" edge="1">
          <mxGeometry relative="1" as="geometry" />
        </mxCell>
        <mxCell id="4kyBC_adUinHuYCq5xL8-45" value="CreateGridUseCase" style="rounded=0;whiteSpace=wrap;html=1;fillColor=#dae8fc;strokeColor=#6c8ebf;" parent="1" vertex="1">
          <mxGeometry x="1040" y="320" width="120" height="40" as="geometry" />
        </mxCell>
        <mxCell id="4kyBC_adUinHuYCq5xL8-50" style="edgeStyle=orthogonalEdgeStyle;rounded=0;orthogonalLoop=1;jettySize=auto;html=1;exitX=1;exitY=0.5;exitDx=0;exitDy=0;entryX=0;entryY=0.5;entryDx=0;entryDy=0;" parent="1" source="4kyBC_adUinHuYCq5xL8-51" target="4kyBC_adUinHuYCq5xL8-41" edge="1">
          <mxGeometry relative="1" as="geometry" />
        </mxCell>
        <mxCell id="4kyBC_adUinHuYCq5xL8-51" value="IsValidCurrentGrid&lt;br&gt;UseCase" style="rounded=0;whiteSpace=wrap;html=1;fillColor=#dae8fc;strokeColor=#6c8ebf;" parent="1" vertex="1">
          <mxGeometry x="1040" y="480" width="120" height="40" as="geometry" />
        </mxCell>
        <mxCell id="4kyBC_adUinHuYCq5xL8-54" style="edgeStyle=orthogonalEdgeStyle;rounded=0;orthogonalLoop=1;jettySize=auto;html=1;exitX=1;exitY=0.5;exitDx=0;exitDy=0;entryX=0;entryY=0.5;entryDx=0;entryDy=0;" parent="1" source="4kyBC_adUinHuYCq5xL8-52" target="4kyBC_adUinHuYCq5xL8-41" edge="1">
          <mxGeometry relative="1" as="geometry" />
        </mxCell>
        <mxCell id="4kyBC_adUinHuYCq5xL8-52" value="IsCompleteCurrent&lt;br&gt;Grid&lt;br&gt;UseCase" style="rounded=0;whiteSpace=wrap;html=1;fillColor=#dae8fc;strokeColor=#6c8ebf;" parent="1" vertex="1">
          <mxGeometry x="1040" y="560" width="120" height="40" as="geometry" />
        </mxCell>
        <mxCell id="4kyBC_adUinHuYCq5xL8-61" style="edgeStyle=orthogonalEdgeStyle;rounded=0;orthogonalLoop=1;jettySize=auto;html=1;exitX=1;exitY=0.5;exitDx=0;exitDy=0;entryX=0;entryY=0.5;entryDx=0;entryDy=0;" parent="1" source="4kyBC_adUinHuYCq5xL8-60" target="4kyBC_adUinHuYCq5xL8-25" edge="1">
          <mxGeometry relative="1" as="geometry" />
        </mxCell>
        <mxCell id="4kyBC_adUinHuYCq5xL8-60" value="SetCurrentGridValue&lt;br&gt;UseCase" style="rounded=0;whiteSpace=wrap;html=1;fillColor=#dae8fc;strokeColor=#6c8ebf;" parent="1" vertex="1">
          <mxGeometry x="1200" y="560" width="120" height="40" as="geometry" />
        </mxCell>
        <mxCell id="4kyBC_adUinHuYCq5xL8-65" style="edgeStyle=orthogonalEdgeStyle;rounded=0;orthogonalLoop=1;jettySize=auto;html=1;exitX=1;exitY=0.5;exitDx=0;exitDy=0;entryX=0;entryY=0.5;entryDx=0;entryDy=0;" parent="1" source="4kyBC_adUinHuYCq5xL8-63" target="4kyBC_adUinHuYCq5xL8-25" edge="1">
          <mxGeometry relative="1" as="geometry" />
        </mxCell>
        <mxCell id="4kyBC_adUinHuYCq5xL8-63" value="AddGrid&lt;br&gt;UseCase" style="rounded=0;whiteSpace=wrap;html=1;fillColor=#dae8fc;strokeColor=#6c8ebf;" parent="1" vertex="1">
          <mxGeometry x="1200" y="400" width="120" height="40" as="geometry" />
        </mxCell>
        <mxCell id="4kyBC_adUinHuYCq5xL8-66" value="GetGridsUseCase" style="rounded=0;whiteSpace=wrap;html=1;dashed=1;fillColor=#dae8fc;strokeColor=#6c8ebf;" parent="1" vertex="1">
          <mxGeometry x="560" y="80" width="120" height="40" as="geometry" />
        </mxCell>
        <mxCell id="4kyBC_adUinHuYCq5xL8-68" value="CreateGridUseCase" style="rounded=0;whiteSpace=wrap;html=1;dashed=1;fillColor=#dae8fc;strokeColor=#6c8ebf;" parent="1" vertex="1">
          <mxGeometry x="560" y="240" width="120" height="40" as="geometry" />
        </mxCell>
        <mxCell id="4kyBC_adUinHuYCq5xL8-70" value="GetCurrentGrid&lt;br&gt;UseCase" style="rounded=0;whiteSpace=wrap;html=1;dashed=1;fillColor=#dae8fc;strokeColor=#6c8ebf;" parent="1" vertex="1">
          <mxGeometry x="560" y="320" width="120" height="40" as="geometry" />
        </mxCell>
        <mxCell id="4kyBC_adUinHuYCq5xL8-72" value="SetCurrentGrid&lt;br&gt;UseCase" style="rounded=0;whiteSpace=wrap;html=1;dashed=1;fillColor=#dae8fc;strokeColor=#6c8ebf;" parent="1" vertex="1">
          <mxGeometry x="560" y="160" width="120" height="40" as="geometry" />
        </mxCell>
        <mxCell id="4kyBC_adUinHuYCq5xL8-74" value="SetCurrentGridValue&lt;br&gt;UseCase" style="rounded=0;whiteSpace=wrap;html=1;dashed=1;fillColor=#dae8fc;strokeColor=#6c8ebf;" parent="1" vertex="1">
          <mxGeometry x="560" y="560" width="120" height="40" as="geometry" />
        </mxCell>
        <mxCell id="4kyBC_adUinHuYCq5xL8-76" value="DeleteGridsUseCase" style="rounded=0;whiteSpace=wrap;html=1;dashed=1;fillColor=#dae8fc;strokeColor=#6c8ebf;" parent="1" vertex="1">
          <mxGeometry x="560" width="120" height="40" as="geometry" />
        </mxCell>
        <mxCell id="4kyBC_adUinHuYCq5xL8-78" value="SetCurrentGrid&lt;br&gt;UseCase" style="rounded=0;whiteSpace=wrap;html=1;dashed=1;fillColor=#dae8fc;strokeColor=#6c8ebf;" parent="1" vertex="1">
          <mxGeometry x="560" y="480" width="120" height="40" as="geometry" />
        </mxCell>
        <mxCell id="4kyBC_adUinHuYCq5xL8-80" value="IsValidCurrentGrid&lt;br&gt;UseCase" style="rounded=0;whiteSpace=wrap;html=1;dashed=1;fillColor=#dae8fc;strokeColor=#6c8ebf;" parent="1" vertex="1">
          <mxGeometry x="560" y="640" width="120" height="40" as="geometry" />
        </mxCell>
        <mxCell id="4kyBC_adUinHuYCq5xL8-81" value="IsCompleteCurrent&lt;br&gt;Grid&lt;br&gt;UseCase" style="rounded=0;whiteSpace=wrap;html=1;dashed=1;fillColor=#dae8fc;strokeColor=#6c8ebf;" parent="1" vertex="1">
          <mxGeometry x="560" y="720" width="120" height="40" as="geometry" />
        </mxCell>
        <mxCell id="4kyBC_adUinHuYCq5xL8-85" value="DeleteCurrentGrid&lt;br style=&quot;border-color: var(--border-color);&quot;&gt;UseCase" style="rounded=0;whiteSpace=wrap;html=1;dashed=1;fillColor=#dae8fc;strokeColor=#6c8ebf;" parent="1" vertex="1">
          <mxGeometry x="560" y="800" width="120" height="40" as="geometry" />
        </mxCell>
        <mxCell id="4kyBC_adUinHuYCq5xL8-87" value="GetCurrentGrid&lt;br&gt;UseCase" style="rounded=0;whiteSpace=wrap;html=1;dashed=1;fillColor=#dae8fc;strokeColor=#6c8ebf;" parent="1" vertex="1">
          <mxGeometry x="560" y="400" width="120" height="40" as="geometry" />
        </mxCell>
        <mxCell id="4kyBC_adUinHuYCq5xL8-90" style="edgeStyle=orthogonalEdgeStyle;rounded=0;orthogonalLoop=1;jettySize=auto;html=1;exitX=1;exitY=0.5;exitDx=0;exitDy=0;entryX=0;entryY=0.5;entryDx=0;entryDy=0;" parent="1" source="4kyBC_adUinHuYCq5xL8-89" target="4kyBC_adUinHuYCq5xL8-12" edge="1">
          <mxGeometry relative="1" as="geometry" />
        </mxCell>
        <mxCell id="4kyBC_adUinHuYCq5xL8-91" style="edgeStyle=orthogonalEdgeStyle;rounded=0;orthogonalLoop=1;jettySize=auto;html=1;exitX=1;exitY=0.75;exitDx=0;exitDy=0;entryX=0;entryY=0.25;entryDx=0;entryDy=0;" parent="1" source="4kyBC_adUinHuYCq5xL8-89" target="4kyBC_adUinHuYCq5xL8-41" edge="1">
          <mxGeometry relative="1" as="geometry">
            <Array as="points">
              <mxPoint x="1180" y="430" />
              <mxPoint x="1180" y="490" />
            </Array>
          </mxGeometry>
        </mxCell>
        <mxCell id="4kyBC_adUinHuYCq5xL8-89" value="DeleteCurrentGrid&lt;br&gt;UseCase" style="rounded=0;whiteSpace=wrap;html=1;" parent="1" vertex="1">
          <mxGeometry x="880" y="400" width="120" height="40" as="geometry" />
        </mxCell>
        <mxCell id="JIY74XaB05Dvq313Rqds-2" value="Class" style="rounded=0;whiteSpace=wrap;html=1;" parent="1" vertex="1">
          <mxGeometry x="-120" width="120" height="40" as="geometry" />
        </mxCell>
        <mxCell id="JIY74XaB05Dvq313Rqds-3" value="Class&lt;br&gt;Symbolink link" style="rounded=0;whiteSpace=wrap;html=1;dashed=1;" parent="1" vertex="1">
          <mxGeometry x="-120" y="50" width="120" height="40" as="geometry" />
        </mxCell>
        <mxCell id="JIY74XaB05Dvq313Rqds-4" value="Custom" style="rounded=0;whiteSpace=wrap;html=1;fillColor=#dae8fc;strokeColor=#6c8ebf;" parent="1" vertex="1">
          <mxGeometry x="-120" y="100" width="120" height="40" as="geometry" />
        </mxCell>
        <mxCell id="JIY74XaB05Dvq313Rqds-5" value="Android" style="rounded=0;whiteSpace=wrap;html=1;fillColor=#d5e8d4;strokeColor=#82b366;" parent="1" vertex="1">
          <mxGeometry x="-120" y="150" width="120" height="40" as="geometry" />
        </mxCell>
        <mxCell id="JIY74XaB05Dvq313Rqds-6" value="Module" style="rounded=0;whiteSpace=wrap;html=1;dashed=1;dashPattern=1 4;" parent="1" vertex="1">
          <mxGeometry x="-120" y="200" width="120" height="40" as="geometry" />
        </mxCell>
        <mxCell id="JIY74XaB05Dvq313Rqds-7" value="AppCompat&lt;br&gt;Activity" style="rounded=0;whiteSpace=wrap;html=1;fillColor=#d5e8d4;strokeColor=#82b366;" parent="1" vertex="1">
          <mxGeometry x="80" y="160" width="120" height="40" as="geometry" />
        </mxCell>
        <mxCell id="YeZv4MfG5t6NwgMOMXwS-1" value="Design library" style="rounded=0;whiteSpace=wrap;html=1;connectable=0;allowArrows=0;align=left;verticalAlign=bottom;dashed=1;dashPattern=1 4;" vertex="1" parent="1">
          <mxGeometry x="70" y="870" width="1420" height="140" as="geometry" />
        </mxCell>
        <mxCell id="YeZv4MfG5t6NwgMOMXwS-2" value="Fragment" style="rounded=0;whiteSpace=wrap;html=1;fillColor=#d5e8d4;strokeColor=#82b366;" vertex="1" parent="1">
          <mxGeometry x="240" y="320" width="120" height="40" as="geometry" />
        </mxCell>
        <mxCell id="YeZv4MfG5t6NwgMOMXwS-5" value="ViewModel" style="rounded=0;whiteSpace=wrap;html=1;fillColor=#d5e8d4;strokeColor=#82b366;" vertex="1" parent="1">
          <mxGeometry x="400" y="320" width="120" height="40" as="geometry" />
        </mxCell>
      </root>
    </mxGraphModel>
  </diagram>
</mxfile>
